# xmcd CD database file
# Copyright (C) 1997 Ti Kan
# 
# Track frame offsets:
#     150
#     18802
#     36964
#     51464
#     69116
#     86178
#     105055
#     129124
#     148101
#     165591
#     182855
#     209362
#     227829
#     245416
#     269498
#     291646
#     310108
# 
# Disc length: 4400 seconds
# 
# Revision: 1
# Processed by: cddbd v1.4b41PL1 Copyright (c) Steve Scherf et al.
# Submitted via: DiscPlay 4.0.4
# 
DISCID=f1112e11
DTITLE=Madonna - Immaculate Collection
DYEAR=1900
DGENRE=
TTITLE0=Holiday
TTITLE1=Borderline
TTITLE2=Like A Virgin
TTITLE3=Material Girl
TTITLE4=Crazy For You
TTITLE5=Into The Groove
TTITLE6=Live To Tell
TTITLE7=Papa Don't Preach
TTITLE8=Open Your Heart
TTITLE9=La Isla Bonita
TTITLE10=Like A Prayer
TTITLE11=Express Yourself
TTITLE12=Cherish
TTITLE13=Vogue
TTITLE14=Justify My Love
TTITLE15=Spaceman - Babylon Zoo
TTITLE16=Hello Spaceboy - David Bowie
EXTD=
EXTT0=
EXTT1=
EXTT2=
EXTT3=
EXTT4=
EXTT5=
EXTT6=
EXTT7=
EXTT8=
EXTT9=
EXTT10=
EXTT11=
EXTT12=
EXTT13=
EXTT14=
EXTT15=
EXTT16=
PLAYORDER=
